HIERARCHY
ROOT Hips
{
  OFFSET 5.84602e-005 68.8428 3.50346
  CHANNELS 6 Xposition Yposition Zposition Zrotation Xrotation Yrotation
  JOINT Spine
  {
    OFFSET 0 8.597 -4.6522
    CHANNELS 3 Zrotation Xrotation Yrotation
    JOINT Spine1
    {
      OFFSET 0 7.8454 0.4098
      CHANNELS 3 Zrotation Xrotation Yrotation
      JOINT Spine2
      {
        OFFSET 0 9.7078 -2.1609
        CHANNELS 3 Zrotation Xrotation Yrotation
        JOINT Neck
        {
          OFFSET 0 21.8761 -0.4549
          CHANNELS 3 Zrotation Xrotation Yrotation
          JOINT Head
          {
            OFFSET 0 12.3537 3.3602
            CHANNELS 3 Zrotation Xrotation Yrotation
            End Site
            {
              OFFSET 0.0001 18.9506 0.5657
            }
          }
        }
        JOINT LeftShoulder
        {
          OFFSET 2.2086 21.1115 7.2329
          CHANNELS 3 Zrotation Xrotation Yrotation
          JOINT LeftArm
          {
            OFFSET 13.1193 3.0282 -4.8998
            CHANNELS 3 Zrotation Xrotation Yrotation
            JOINT LeftForeArm
            {
              OFFSET 27.4081 -0.0973053 -0.2375
              CHANNELS 3 Zrotation Xrotation Yrotation
              JOINT LeftHand
              {
                OFFSET 22.8641 0.0662994 -0.1369
                CHANNELS 3 Zrotation Xrotation Yrotation
                JOINT LeftHandIndex1
                {
                  OFFSET 8.8614 0.775009 2.4612
                  CHANNELS 3 Zrotation Xrotation Yrotation
                  JOINT LeftHandIndex2
                  {
                    OFFSET 3.3146 -0.808304 0.5841
                    CHANNELS 3 Zrotation Xrotation Yrotation
                    JOINT LeftHandIndex3
                    {
                      OFFSET 2.2628 -0.552002 0.3989
                      CHANNELS 3 Zrotation Xrotation Yrotation
                      End Site
                      {
                        OFFSET 1.6102 -0.4807 0.2612
                      }
                    }
                  }
                }
                JOINT LeftHandMiddle1
                {
                  OFFSET 8.9937 0.895004 0.2143
                  CHANNELS 3 Zrotation Xrotation Yrotation
                  JOINT LeftHandMiddle2
                  {
                    OFFSET 4.0984 0.0113983 -0.0242
                    CHANNELS 3 Zrotation Xrotation Yrotation
                    JOINT LeftHandMiddle3
                    {
                      OFFSET 2.2716 0.00689697 -0.0138001
                      CHANNELS 3 Zrotation Xrotation Yrotation
                      End Site
                      {
                        OFFSET 2.0404 -0.1441 0.0027
                      }
                    }
                  }
                }
                JOINT LeftHandRing1
                {
                  OFFSET 8.5234 0.597198 -2.0164
                  CHANNELS 3 Zrotation Xrotation Yrotation
                  JOINT LeftHandRing2
                  {
                    OFFSET 3.7188 -0.188293 -0.2328
                    CHANNELS 3 Zrotation Xrotation Yrotation
                    JOINT LeftHandRing3
                    {
                      OFFSET 2.1191 -0.106598 -0.1332
                      CHANNELS 3 Zrotation Xrotation Yrotation
                      End Site
                      {
                        OFFSET 1.8737 -0.2304 -0.0886
                      }
                    }
                  }
                }
                JOINT LeftHandPinky1
                {
                  OFFSET 7.9094 -0.601089 -3.4825
                  CHANNELS 3 Zrotation Xrotation Yrotation
                  JOINT LeftHandPinky2
                  {
                    OFFSET 2.2874 -0.477005 -0.6314
                    CHANNELS 3 Zrotation Xrotation Yrotation
                    JOINT LeftHandPinky3
                    {
                      OFFSET 1.6774 -0.349396 -0.4633
                      CHANNELS 3 Zrotation Xrotation Yrotation
                      End Site
                      {
                        OFFSET 1.4888 -0.4091 -0.3416
                      }
                    }
                  }
                }
                JOINT LeftHandThumb1
                {
                  OFFSET 1.833 -1.3875 1.3896
                  CHANNELS 3 Zrotation Xrotation Yrotation
                  JOINT LeftHandThumb2
                  {
                    OFFSET 3.4129 -1.121 2.5732
                    CHANNELS 3 Zrotation Xrotation Yrotation
                    JOINT LeftHandThumb3
                    {
                      OFFSET 2.2474 -0.804199 1.6192
                      CHANNELS 3 Zrotation Xrotation Yrotation
                      End Site
                      {
                        OFFSET 1.6527 -0.5689 1.1317
                      }
                    }
                  }
                }
              }
            }
          }
        }
        JOINT RightShoulder
        {
          OFFSET -2.2086 21.1115 7.2329
          CHANNELS 3 Zrotation Xrotation Yrotation
          JOINT RightArm
          {
            OFFSET -13.1216 3.0287 -4.9007
            CHANNELS 3 Zrotation Xrotation Yrotation
            JOINT RightForeArm
            {
              OFFSET -27.4081 -0.0973053 -0.2375
              CHANNELS 3 Zrotation Xrotation Yrotation
              JOINT RightHand
              {
                OFFSET -22.8641 0.0664063 -0.1369
                CHANNELS 3 Zrotation Xrotation Yrotation
                JOINT RightHandIndex1
                {
                  OFFSET -8.8614 0.774994 2.4612
                  CHANNELS 3 Zrotation Xrotation Yrotation
                  JOINT RightHandIndex2
                  {
                    OFFSET -3.3146 -0.808304 0.5841
                    CHANNELS 3 Zrotation Xrotation Yrotation
                    JOINT RightHandIndex3
                    {
                      OFFSET -2.2628 -0.552002 0.3989
                      CHANNELS 3 Zrotation Xrotation Yrotation
                      End Site
                      {
                        OFFSET -1.6102 -0.4807 0.2612
                      }
                    }
                  }
                }
                JOINT RightHandMiddle1
                {
                  OFFSET -8.9937 0.894989 0.2143
                  CHANNELS 3 Zrotation Xrotation Yrotation
                  JOINT RightHandMiddle2
                  {
                    OFFSET -4.0984 0.0113983 -0.0242
                    CHANNELS 3 Zrotation Xrotation Yrotation
                    JOINT RightHandMiddle3
                    {
                      OFFSET -2.2716 0.00691223 -0.0138001
                      CHANNELS 3 Zrotation Xrotation Yrotation
                      End Site
                      {
                        OFFSET -2.0404 -0.1441 0.0027
                      }
                    }
                  }
                }
                JOINT RightHandRing1
                {
                  OFFSET -8.5234 0.597198 -2.0164
                  CHANNELS 3 Zrotation Xrotation Yrotation
                  JOINT RightHandRing2
                  {
                    OFFSET -3.7188 -0.188309 -0.2328
                    CHANNELS 3 Zrotation Xrotation Yrotation
                    JOINT RightHandRing3
                    {
                      OFFSET -2.1191 -0.106598 -0.1332
                      CHANNELS 3 Zrotation Xrotation Yrotation
                      End Site
                      {
                        OFFSET -1.8737 -0.2304 -0.0886
                      }
                    }
                  }
                }
                JOINT RightHandPinky1
                {
                  OFFSET -7.9094 -0.601105 -3.4825
                  CHANNELS 3 Zrotation Xrotation Yrotation
                  JOINT RightHandPinky2
                  {
                    OFFSET -2.2874 -0.477005 -0.6314
                    CHANNELS 3 Zrotation Xrotation Yrotation
                    JOINT RightHandPinky3
                    {
                      OFFSET -1.6774 -0.349396 -0.4633
                      CHANNELS 3 Zrotation Xrotation Yrotation
                      End Site
                      {
                        OFFSET -1.4888 -0.4091 -0.3416
                      }
                    }
                  }
                }
                JOINT RightHandThumb1
                {
                  OFFSET -1.833 -1.38751 1.3896
                  CHANNELS 3 Zrotation Xrotation Yrotation
                  JOINT RightHandThumb2
                  {
                    OFFSET -3.41299 -1.12099 2.5732
                    CHANNELS 3 Zrotation Xrotation Yrotation
                    JOINT RightHandThumb3
                    {
                      OFFSET -2.24741 -0.804108 1.6192
                      CHANNELS 3 Zrotation Xrotation Yrotation
                      End Site
                      {
                        OFFSET -1.6527 -0.5689 1.1317
                      }
                    }
                  }
                }
              }
            }
          }
        }
      }
    }
  }
  JOINT RightUpLeg
  {
    OFFSET -9.1966 3.8861 -0.7581
    CHANNELS 3 Zrotation Xrotation Yrotation
    JOINT RightLeg
    {
      OFFSET -0.7359 -41.0265 0
      CHANNELS 3 Zrotation Xrotation Yrotation
      JOINT RightFoot
      {
        OFFSET 0 -40.2855 0
        CHANNELS 3 Zrotation Xrotation Yrotation
        JOINT RightToeBase
        {
          OFFSET 0 -5.6122 11.7359
          CHANNELS 3 Zrotation Xrotation Yrotation
          End Site
          {
            OFFSET 0 0 7.8731
          }
        }
      }
    }
  }
  JOINT LeftUpLeg
  {
    OFFSET 9.1965 3.8864 -0.7581
    CHANNELS 3 Zrotation Xrotation Yrotation
    JOINT LeftLeg
    {
      OFFSET 0.7359 -41.0268 0
      CHANNELS 3 Zrotation Xrotation Yrotation
      JOINT LeftFoot
      {
        OFFSET 0 -40.2855 0
        CHANNELS 3 Zrotation Xrotation Yrotation
        JOINT LeftToeBase
        {
          OFFSET 0 -5.6122 11.7359
          CHANNELS 3 Zrotation Xrotation Yrotation
          End Site
          {
            OFFSET 0 0 7.8731
          }
        }
      }
    }
  }
}
MOTION
Frames:	4
Frame Time:	0.0333333
5.84602e-005 68.8428 3.50346 0 0 -0 0 0 -0 0 0 -0 0 0 -0 0 0 -0 0 0 -0 0 0 -0 0 0 -0 0 0 -0 0 0 -0 0 0 -0 0 0 -0 0 0 -0 0 0 -0 -0.0146107 -8.87603e-005 -2.63497e-007 2.99804e-018 -2.42657e-020 -1.42182e-022 0 0 -0 -0.0187562 -0.001176 5.858e-005 5.06224e-018 3.88251e-019 1.21329e-020 0 0 -0 -0.012269 -0.00324817 0.000675346 -1.74678e-018 3.88251e-019 -0 0 0 -0 0 0 -0 0 0 -0 0 0 -0 0 0 -0 0 0 -0 0 0 -0 0 0 -0 0 0 -0 0 0 -0 0 0 -0 0.0149955 -9.10982e-005 2.64101e-007 -9.69331e-018 1.21329e-020 -4.7394e-023 0 0 -0 0.0189956 -0.00119102 -5.96516e-005 -5.41541e-019 0 2.42657e-020 0 0 -0 0.0122698 -0.00324857 -0.000673756 -2.00796e-019 0 -1.94126e-019 0 0 -0 0 0 -0 0 0 -0 3.39842 1.33031 -0.0637918 -5.65207e-008 0.834868 -0.000436188 -3.39935 -2.16518 -0.0642563 -8.89002e-024 -1.18485e-023 -1.48106e-024 -3.39844 1.35642 0.0640283 -3.18788e-007 0.782166 -0.000588827 3.39931 -2.13858 0.0634662 1.1399e-023 0 -0 
-7.09666 21.1209 4.18813 -66.6667 0 -0 1.12619 4.52609 -4.12899 2.58943 8.95792 -8.38539 2.58946 8.95792 -8.3854 6.6439 -1.46462 0.229902 -0.0143807 11.1288 0.00135544 3.51487 -18.6056 18.2075 -52.6429 15.9748 -34.1192 -16.0853 -2.3379 0.127827 9.54166e-015 0 -3.18055e-015 4.77083e-015 3.18055e-015 -6.36111e-015 2.58213e-007 -2.95335e-007 -7.52341e-007 -3.18055e-015 6.36111e-015 -3.18055e-015 4.77083e-015 3.18055e-015 -6.36111e-015 -0.0145883 -8.994e-005 -7.60722e-008 -3.18055e-015 -3.18055e-015 -0 4.77083e-015 3.18055e-015 -6.36111e-015 -0.0187922 -0.00117852 5.86777e-005 1.59028e-015 6.36111e-015 -3.18055e-015 4.77083e-015 3.18055e-015 -6.36111e-015 -0.0122138 -0.00323725 0.000676007 1.74931e-014 9.54166e-015 -6.36111e-015 4.77083e-015 3.18055e-015 -6.36111e-015 2.58213e-007 -2.95335e-007 -7.52341e-007 -3.18055e-015 6.36111e-015 -3.18055e-015 -16.8704 -85.2343 -62.8817 -9.50072 -9.12127 -11.2932 24.678 11.6105 -0.152476 9.61674 41.705 -29.4452 3.24012e-007 1.07289e-007 6.35349e-007 4.32374e-008 4.77873e-009 -8.21832e-007 3.24012e-007 1.07289e-007 6.35349e-007 3.24012e-007 1.07289e-007 6.35349e-007 0.0149667 -9.14953e-005 5.90673e-006 -3.18055e-015 3.18055e-015 3.18055e-015 3.24012e-007 1.07289e-007 6.35349e-007 0.0190382 -0.00119272 -5.62758e-005 -3.18055e-015 -6.36111e-015 4.77083e-015 3.24012e-007 1.07289e-007 6.35349e-007 0.0122688 -0.00325195 -0.000673531 -6.36111e-015 -1.27222e-014 -0 3.24012e-007 1.07289e-007 6.35349e-007 4.32374e-008 4.77873e-009 -8.21832e-007 3.24012e-007 1.07289e-007 6.35349e-007 -4.7771 -12.6555 -0.548524 36.8522 34.6822 -66.3458 9.63458 23.7982 8.55013 -3.30914e-006 -7.22212e-007 5.73053e-006 3.44596 5.04197 7.06188 1.67964 59.3693 -2.95898 2.58287 2.2496 2.17293 -2.42696e-006 -8.57598e-007 -1.67548e-006 
-8.09681 1.23199 4.59347 -96.6667 0 -0 2.17489 6.1955 -6.13048 5.04978 12.1156 -12.6014 5.04976 12.1157 -12.6014 9.76149 -2.1229 0.337962 0.0507429 16.0425 -0.00487511 8.60785 -24.93 27.7602 -70.437 18.23 -50.5611 -21.5829 0.297728 0.11984 1.0494e-006 5.26405e-007 3.90567e-006 -6.36111e-015 0 6.36111e-015 -3.18055e-015 0 -0 -3.18055e-015 6.36111e-015 3.18055e-015 -6.36111e-015 0 6.36111e-015 -0.0146219 -9.01992e-005 3.54085e-006 3.18055e-015 9.54166e-015 -3.18055e-015 -6.36111e-015 0 6.36111e-015 -0.0187483 -0.0011746 6.26878e-005 -3.18055e-015 6.36111e-015 -0 -6.36111e-015 0 6.36111e-015 -0.0122729 -0.00325379 0.00067249 4.67918e-007 -1.80529e-006 1.20349e-006 -6.36111e-015 0 6.36111e-015 -3.18055e-015 0 -0 -3.18055e-015 6.36111e-015 3.18055e-015 -105.411 -52.7439 -169.457 -15.0356 -12.9036 -16.5963 30.5194 25.7448 -0.213692 32.7987 51.7378 -55.7712 -1.80497e-006 3.43629e-007 -1.15939e-007 -2.70327e-006 -2.63774e-007 1.61491e-007 -2.07545e-006 -1.4848e-007 -4.05364e-007 -1.80497e-006 3.43629e-007 -1.15939e-007 0.0149873 -8.84961e-005 -1.89035e-007 -2.07548e-006 -1.48533e-007 -4.05343e-007 -1.80497e-006 3.43629e-007 -1.15939e-007 0.0189746 -0.00119287 -5.92594e-005 -2.07549e-006 -1.48546e-007 -4.05318e-007 -1.80497e-006 3.43629e-007 -1.15939e-007 0.0122487 -0.0032406 -0.000671592 -2.07548e-006 -1.48529e-007 -4.05288e-007 -1.80497e-006 3.43629e-007 -1.15939e-007 -2.70327e-006 -2.63774e-007 1.61491e-007 -2.07545e-006 -1.4848e-007 -4.05364e-007 -8.18889 -18.1225 0.136366 62.2933 19.3791 -88.3293 11.9208 36.5855 14.3675 -2.91901e-006 -1.73308e-006 -1.27988e-007 6.19826 6.66263 10.1913 40.8604 85.3542 -41.8376 2.17912 3.39436 3.1625 -3.73416e-006 3.1895e-006 6.75556e-006 
-8.03527 5.63629 4.98176 -90 0 -0 1.96888 5.48869 -5.85762 4.52305 10.7426 -11.9819 4.52302 10.7426 -11.9819 9.34532 -1.9749 0.323581 0.195222 14.7409 -0.0185632 5.9775 -22.4759 25.3227 -66.3269 17.801 -46.4676 -20.0587 -0.578214 0.121971 3.84193e-007 1.11911e-007 1.48612e-007 -9.60482e-008 -2.79779e-008 -3.71529e-008 1.92097e-007 5.59557e-008 7.43058e-008 -9.60483e-008 -2.79778e-008 -3.71529e-008 -9.60482e-008 -2.79779e-008 -3.71529e-008 -0.0145933 -9.06054e-005 4.93786e-007 4.49273e-007 -1.44096e-006 -5.50407e-007 -9.60482e-008 -2.79779e-008 -3.71529e-008 -0.0187609 -0.001173 6.09524e-005 -9.60488e-008 -2.79717e-008 -3.71565e-008 -9.60482e-008 -2.79779e-008 -3.71529e-008 -0.0122635 -0.00324433 0.000679405 -9.60496e-008 -2.79733e-008 -3.71532e-008 -9.60482e-008 -2.79779e-008 -3.71529e-008 1.92097e-007 5.59557e-008 7.43058e-008 -9.60483e-008 -2.79778e-008 -3.71529e-008 -106.997 -62.4259 -166.171 -13.8992 -12.0056 -15.3956 30.1017 22.7117 -0.193668 24.385 50.8527 -47.6214 2.09674e-008 4.18584e-006 1.27628e-006 2.97307e-007 8.73902e-007 1.90831e-006 2.09675e-008 4.18584e-006 1.27628e-006 2.09674e-008 4.18584e-006 1.27628e-006 0.0149849 -8.90658e-005 1.78304e-006 2.02826e-008 4.18601e-006 1.27574e-006 2.09674e-008 4.18584e-006 1.27628e-006 0.0189891 -0.00118187 -5.6068e-005 2.01094e-008 4.18611e-006 1.27559e-006 2.09674e-008 4.18584e-006 1.27628e-006 0.0122605 -0.00323864 -0.000676694 -1.79322e-007 1.03177e-006 1.37352e-007 2.09674e-008 4.18584e-006 1.27628e-006 2.97307e-007 8.73902e-007 1.90831e-006 2.09675e-008 4.18584e-006 1.27628e-006 -7.27535 -16.5238 0.123477 57.3733 23.8133 -85.2646 11.8678 33.745 13.0667 -1.16623e-006 2.69264e-007 5.11415e-008 5.62448 6.94275 9.37465 13.1711 79.3717 -14.3523 2.24389 3.14721 2.94229 1.59028e-015 1.86361e-016 9.86935e-016 
